<mxfile host="app.diagrams.net" modified="2023-04-29T04:36:44.889Z" agent="Mozilla/5.0 (Windows NT 10.0; Win64; x64; rv:108.0) Gecko/20100101 Firefox/108.0" etag="DXNQFqsnqnZmsliQgVQq" version="21.2.2">
  <diagram name="Page-1" id="F2uAwdxsBDfVGPQz6D__">
    <mxGraphModel dx="1561" dy="531" grid="1" gridSize="10" guides="1" tooltips="1" connect="1" arrows="1" fold="1" page="1" pageScale="1" pageWidth="850" pageHeight="1100" math="0" shadow="0">
      <root>
        <mxCell id="0" />
        <mxCell id="1" parent="0" />
        <mxCell id="HZRKlwLpZjMJuqIR7BEd-4" value="Diet planning and health check up system" style="shape=umlFrame;whiteSpace=wrap;html=1;pointerEvents=0;width=1370;height=50;" vertex="1" parent="1">
          <mxGeometry x="360" y="130" width="1370" height="1810" as="geometry" />
        </mxCell>
        <mxCell id="HZRKlwLpZjMJuqIR7BEd-5" value="client-user" style="shape=umlActor;verticalLabelPosition=bottom;verticalAlign=top;html=1;" vertex="1" parent="1">
          <mxGeometry x="271.87" y="280" width="35" height="55" as="geometry" />
        </mxCell>
        <mxCell id="HZRKlwLpZjMJuqIR7BEd-6" value="Register&amp;nbsp;" style="ellipse;whiteSpace=wrap;html=1;" vertex="1" parent="1">
          <mxGeometry x="580" y="190" width="180" height="80" as="geometry" />
        </mxCell>
        <mxCell id="HZRKlwLpZjMJuqIR7BEd-7" value="submit your details" style="ellipse;whiteSpace=wrap;html=1;" vertex="1" parent="1">
          <mxGeometry x="890" y="210" width="190" height="50" as="geometry" />
        </mxCell>
        <mxCell id="HZRKlwLpZjMJuqIR7BEd-8" value="" style="endArrow=none;html=1;rounded=1;entryX=0;entryY=0.5;entryDx=0;entryDy=0;exitX=1;exitY=0.3333333333333333;exitDx=0;exitDy=0;exitPerimeter=0;strokeColor=#000000;strokeWidth=2;" edge="1" parent="1" source="HZRKlwLpZjMJuqIR7BEd-5" target="HZRKlwLpZjMJuqIR7BEd-6">
          <mxGeometry width="50" height="50" relative="1" as="geometry">
            <mxPoint x="730" y="270" as="sourcePoint" />
            <mxPoint x="780" y="220" as="targetPoint" />
          </mxGeometry>
        </mxCell>
        <mxCell id="HZRKlwLpZjMJuqIR7BEd-9" value="view Feedback" style="ellipse;whiteSpace=wrap;html=1;" vertex="1" parent="1">
          <mxGeometry x="536.87" y="314.25" width="142.5" height="40" as="geometry" />
        </mxCell>
        <mxCell id="HZRKlwLpZjMJuqIR7BEd-10" value="&amp;lt;&amp;lt;include&amp;gt;&amp;gt;" style="html=1;verticalAlign=bottom;endArrow=open;dashed=1;endSize=8;elbow=vertical;rounded=0;exitX=0;exitY=0.5;exitDx=0;exitDy=0;entryX=1;entryY=0.5;entryDx=0;entryDy=0;" edge="1" parent="1" source="HZRKlwLpZjMJuqIR7BEd-7" target="HZRKlwLpZjMJuqIR7BEd-6">
          <mxGeometry x="-0.0077" relative="1" as="geometry">
            <mxPoint x="900" y="410" as="sourcePoint" />
            <mxPoint x="720" y="240" as="targetPoint" />
            <mxPoint as="offset" />
          </mxGeometry>
        </mxCell>
        <mxCell id="HZRKlwLpZjMJuqIR7BEd-11" value="" style="endArrow=none;html=1;rounded=0;entryX=0.5;entryY=0.5;entryDx=0;entryDy=0;entryPerimeter=0;exitX=0;exitY=0.5;exitDx=0;exitDy=0;strokeWidth=2;" edge="1" parent="1" source="HZRKlwLpZjMJuqIR7BEd-9" target="HZRKlwLpZjMJuqIR7BEd-5">
          <mxGeometry width="50" height="50" relative="1" as="geometry">
            <mxPoint x="950" y="320" as="sourcePoint" />
            <mxPoint x="720" y="277.67999999999995" as="targetPoint" />
          </mxGeometry>
        </mxCell>
        <mxCell id="HZRKlwLpZjMJuqIR7BEd-12" value="Registered client" style="shape=umlActor;verticalLabelPosition=bottom;verticalAlign=top;html=1;" vertex="1" parent="1">
          <mxGeometry x="270" y="580.5" width="40" height="70" as="geometry" />
        </mxCell>
        <mxCell id="HZRKlwLpZjMJuqIR7BEd-13" value="" style="endArrow=none;html=1;rounded=0;exitX=1;exitY=0.3333333333333333;exitDx=0;exitDy=0;exitPerimeter=0;entryX=0;entryY=0.5;entryDx=0;entryDy=0;strokeWidth=2;" edge="1" parent="1" source="HZRKlwLpZjMJuqIR7BEd-12" target="HZRKlwLpZjMJuqIR7BEd-19">
          <mxGeometry width="50" height="50" relative="1" as="geometry">
            <mxPoint x="757.5" y="580.5" as="sourcePoint" />
            <mxPoint x="807.5" y="530.5" as="targetPoint" />
          </mxGeometry>
        </mxCell>
        <mxCell id="HZRKlwLpZjMJuqIR7BEd-14" value="view Feedback" style="ellipse;whiteSpace=wrap;html=1;" vertex="1" parent="1">
          <mxGeometry x="567.5" y="610.5" width="142.5" height="40" as="geometry" />
        </mxCell>
        <mxCell id="HZRKlwLpZjMJuqIR7BEd-15" value="" style="endArrow=none;html=1;rounded=0;exitX=0.5;exitY=0.5;exitDx=0;exitDy=0;exitPerimeter=0;entryX=0;entryY=0.5;entryDx=0;entryDy=0;strokeWidth=2;" edge="1" parent="1" source="HZRKlwLpZjMJuqIR7BEd-12" target="HZRKlwLpZjMJuqIR7BEd-14">
          <mxGeometry width="50" height="50" relative="1" as="geometry">
            <mxPoint x="760" y="590.5" as="sourcePoint" />
            <mxPoint x="862.5" y="550.5" as="targetPoint" />
          </mxGeometry>
        </mxCell>
        <mxCell id="HZRKlwLpZjMJuqIR7BEd-16" value="check Availability" style="ellipse;whiteSpace=wrap;html=1;" vertex="1" parent="1">
          <mxGeometry x="1060" y="640" width="92.5" height="40" as="geometry" />
        </mxCell>
        <mxCell id="HZRKlwLpZjMJuqIR7BEd-230" value="" style="edgeStyle=orthogonalEdgeStyle;rounded=0;orthogonalLoop=1;jettySize=auto;html=1;" edge="1" parent="1" source="HZRKlwLpZjMJuqIR7BEd-17" target="HZRKlwLpZjMJuqIR7BEd-18">
          <mxGeometry relative="1" as="geometry" />
        </mxCell>
        <mxCell id="HZRKlwLpZjMJuqIR7BEd-17" value="password &amp;amp; user name" style="ellipse;whiteSpace=wrap;html=1;" vertex="1" parent="1">
          <mxGeometry x="880" y="509.5" width="150" height="50" as="geometry" />
        </mxCell>
        <mxCell id="HZRKlwLpZjMJuqIR7BEd-18" value="validete user" style="ellipse;whiteSpace=wrap;html=1;" vertex="1" parent="1">
          <mxGeometry x="905" y="440" width="160" height="40" as="geometry" />
        </mxCell>
        <mxCell id="HZRKlwLpZjMJuqIR7BEd-19" value="Login&lt;br&gt;if enter wrong details" style="ellipse;whiteSpace=wrap;html=1;" vertex="1" parent="1">
          <mxGeometry x="567.5" y="509.5" width="182.5" height="81" as="geometry" />
        </mxCell>
        <mxCell id="HZRKlwLpZjMJuqIR7BEd-20" value="" style="line;strokeWidth=1;align=left;verticalAlign=middle;spacingTop=-1;spacingLeft=3;spacingRight=3;rotatable=0;labelPosition=right;points=[];portConstraint=eastwest;" vertex="1" parent="1">
          <mxGeometry x="567.5" y="542" width="182.5" height="8" as="geometry" />
        </mxCell>
        <mxCell id="HZRKlwLpZjMJuqIR7BEd-21" value="Diet planning system" style="ellipse;whiteSpace=wrap;html=1;" vertex="1" parent="1">
          <mxGeometry x="1135" y="760" width="185" height="90" as="geometry" />
        </mxCell>
        <mxCell id="HZRKlwLpZjMJuqIR7BEd-22" value="&amp;nbsp;Food items" style="ellipse;whiteSpace=wrap;html=1;" vertex="1" parent="1">
          <mxGeometry x="630" y="857.5" width="148.12" height="40" as="geometry" />
        </mxCell>
        <mxCell id="HZRKlwLpZjMJuqIR7BEd-24" value="Generate Meal plan" style="ellipse;whiteSpace=wrap;html=1;" vertex="1" parent="1">
          <mxGeometry x="390" y="877.5" width="146.87" height="60" as="geometry" />
        </mxCell>
        <mxCell id="HZRKlwLpZjMJuqIR7BEd-25" value="View Meal plan" style="ellipse;whiteSpace=wrap;html=1;" vertex="1" parent="1">
          <mxGeometry x="503.13" y="1000" width="216.87" height="80" as="geometry" />
        </mxCell>
        <mxCell id="HZRKlwLpZjMJuqIR7BEd-26" value="Health check up system" style="ellipse;whiteSpace=wrap;html=1;" vertex="1" parent="1">
          <mxGeometry x="1130" y="1280" width="180" height="110" as="geometry" />
        </mxCell>
        <mxCell id="HZRKlwLpZjMJuqIR7BEd-29" value="&amp;lt;&amp;lt;Extend&amp;gt;&amp;gt;" style="html=1;verticalAlign=bottom;endArrow=open;dashed=1;endSize=8;elbow=vertical;rounded=0;entryX=1.025;entryY=0.38;entryDx=0;entryDy=0;exitX=0;exitY=0.5;exitDx=0;exitDy=0;entryPerimeter=0;" edge="1" parent="1" source="HZRKlwLpZjMJuqIR7BEd-17" target="HZRKlwLpZjMJuqIR7BEd-19">
          <mxGeometry relative="1" as="geometry">
            <mxPoint x="850" y="480" as="sourcePoint" />
            <mxPoint x="730" y="483.38" as="targetPoint" />
          </mxGeometry>
        </mxCell>
        <mxCell id="HZRKlwLpZjMJuqIR7BEd-30" style="edgeStyle=none;rounded=0;orthogonalLoop=1;jettySize=auto;html=1;exitX=0.5;exitY=1;exitDx=0;exitDy=0;" edge="1" parent="1" source="HZRKlwLpZjMJuqIR7BEd-17" target="HZRKlwLpZjMJuqIR7BEd-17">
          <mxGeometry relative="1" as="geometry" />
        </mxCell>
        <mxCell id="HZRKlwLpZjMJuqIR7BEd-31" value="" style="html=1;verticalAlign=bottom;endArrow=open;endSize=8;elbow=vertical;rounded=0;exitX=0.669;exitY=0.996;exitDx=0;exitDy=0;exitPerimeter=0;" edge="1" parent="1" source="HZRKlwLpZjMJuqIR7BEd-19" target="HZRKlwLpZjMJuqIR7BEd-21">
          <mxGeometry y="-20" relative="1" as="geometry">
            <mxPoint x="860" y="540" as="sourcePoint" />
            <mxPoint x="830" y="570" as="targetPoint" />
            <mxPoint as="offset" />
          </mxGeometry>
        </mxCell>
        <mxCell id="HZRKlwLpZjMJuqIR7BEd-32" value="" style="endArrow=none;html=1;rounded=0;entryX=0;entryY=0.5;entryDx=0;entryDy=0;exitX=0.5;exitY=0.5;exitDx=0;exitDy=0;exitPerimeter=0;" edge="1" parent="1" source="HZRKlwLpZjMJuqIR7BEd-23" target="HZRKlwLpZjMJuqIR7BEd-25">
          <mxGeometry width="50" height="50" relative="1" as="geometry">
            <mxPoint x="263.13" y="937.5" as="sourcePoint" />
            <mxPoint x="813.13" y="807.5" as="targetPoint" />
          </mxGeometry>
        </mxCell>
        <mxCell id="HZRKlwLpZjMJuqIR7BEd-33" value="" style="endArrow=none;html=1;rounded=0;entryX=0;entryY=0.5;entryDx=0;entryDy=0;exitX=1;exitY=0.3333333333333333;exitDx=0;exitDy=0;exitPerimeter=0;strokeWidth=2;" edge="1" parent="1" source="HZRKlwLpZjMJuqIR7BEd-23" target="HZRKlwLpZjMJuqIR7BEd-24">
          <mxGeometry width="50" height="50" relative="1" as="geometry">
            <mxPoint x="263.13" y="917.5" as="sourcePoint" />
            <mxPoint x="433.13" y="922.5" as="targetPoint" />
          </mxGeometry>
        </mxCell>
        <mxCell id="HZRKlwLpZjMJuqIR7BEd-34" style="edgeStyle=none;rounded=0;orthogonalLoop=1;jettySize=auto;html=1;exitX=1;exitY=0;exitDx=0;exitDy=0;" edge="1" parent="1" source="HZRKlwLpZjMJuqIR7BEd-24" target="HZRKlwLpZjMJuqIR7BEd-24">
          <mxGeometry relative="1" as="geometry" />
        </mxCell>
        <mxCell id="HZRKlwLpZjMJuqIR7BEd-35" value="Use" style="endArrow=open;endSize=12;dashed=1;html=1;rounded=0;entryX=0.968;entryY=0.204;entryDx=0;entryDy=0;entryPerimeter=0;exitX=0.053;exitY=0.83;exitDx=0;exitDy=0;exitPerimeter=0;" edge="1" parent="1" source="HZRKlwLpZjMJuqIR7BEd-22" target="HZRKlwLpZjMJuqIR7BEd-24">
          <mxGeometry x="1" y="570" width="160" relative="1" as="geometry">
            <mxPoint x="562.5" y="858" as="sourcePoint" />
            <mxPoint x="463.13" y="855" as="targetPoint" />
            <mxPoint x="-544" y="-569" as="offset" />
          </mxGeometry>
        </mxCell>
        <mxCell id="HZRKlwLpZjMJuqIR7BEd-36" value="&amp;lt;&amp;lt;include&amp;gt;&amp;gt;" style="text;html=1;align=center;verticalAlign=middle;resizable=0;points=[];autosize=1;" vertex="1" parent="1">
          <mxGeometry x="550" y="857.5" width="90" height="30" as="geometry" />
        </mxCell>
        <mxCell id="HZRKlwLpZjMJuqIR7BEd-37" style="edgeStyle=none;rounded=0;orthogonalLoop=1;jettySize=auto;html=1;exitX=1;exitY=0.5;exitDx=0;exitDy=0;" edge="1" parent="1" source="HZRKlwLpZjMJuqIR7BEd-38" target="HZRKlwLpZjMJuqIR7BEd-21">
          <mxGeometry relative="1" as="geometry" />
        </mxCell>
        <mxCell id="HZRKlwLpZjMJuqIR7BEd-38" value="client Health Information" style="ellipse;whiteSpace=wrap;html=1;" vertex="1" parent="1">
          <mxGeometry x="550" y="700" width="180" height="100" as="geometry" />
        </mxCell>
        <mxCell id="HZRKlwLpZjMJuqIR7BEd-40" style="edgeStyle=none;rounded=0;orthogonalLoop=1;jettySize=auto;html=1;exitX=1;exitY=1;exitDx=0;exitDy=0;entryX=0;entryY=0;entryDx=0;entryDy=0;" edge="1" parent="1" source="HZRKlwLpZjMJuqIR7BEd-38" target="HZRKlwLpZjMJuqIR7BEd-26">
          <mxGeometry relative="1" as="geometry">
            <mxPoint x="760" y="680" as="sourcePoint" />
            <mxPoint x="848" y="677" as="targetPoint" />
          </mxGeometry>
        </mxCell>
        <mxCell id="HZRKlwLpZjMJuqIR7BEd-41" value="Doctor&lt;br&gt;" style="shape=umlActor;verticalLabelPosition=bottom;verticalAlign=top;html=1;" vertex="1" parent="1">
          <mxGeometry x="1750" y="1237.5" width="50" height="80" as="geometry" />
        </mxCell>
        <mxCell id="HZRKlwLpZjMJuqIR7BEd-43" value="Health Data Analysis" style="ellipse;whiteSpace=wrap;html=1;" vertex="1" parent="1">
          <mxGeometry x="1160" y="1440" width="170" height="110" as="geometry" />
        </mxCell>
        <mxCell id="HZRKlwLpZjMJuqIR7BEd-44" style="edgeStyle=none;rounded=0;orthogonalLoop=1;jettySize=auto;html=1;" edge="1" parent="1" source="HZRKlwLpZjMJuqIR7BEd-45" target="HZRKlwLpZjMJuqIR7BEd-26">
          <mxGeometry relative="1" as="geometry" />
        </mxCell>
        <mxCell id="HZRKlwLpZjMJuqIR7BEd-45" value="Remote Health monitoring" style="ellipse;whiteSpace=wrap;html=1;" vertex="1" parent="1">
          <mxGeometry x="1453.75" y="1280" width="175" height="110" as="geometry" />
        </mxCell>
        <mxCell id="HZRKlwLpZjMJuqIR7BEd-46" style="edgeStyle=none;rounded=0;orthogonalLoop=1;jettySize=auto;html=1;exitX=0;exitY=0.5;exitDx=0;exitDy=0;" edge="1" parent="1" source="HZRKlwLpZjMJuqIR7BEd-14" target="HZRKlwLpZjMJuqIR7BEd-14">
          <mxGeometry relative="1" as="geometry" />
        </mxCell>
        <mxCell id="HZRKlwLpZjMJuqIR7BEd-47" value="" style="endArrow=none;html=1;rounded=0;entryX=0;entryY=1;entryDx=0;entryDy=0;jumpStyle=arc;jumpSize=16;exitX=0.5;exitY=0.5;exitDx=0;exitDy=0;exitPerimeter=0;strokeWidth=2;" edge="1" parent="1" source="HZRKlwLpZjMJuqIR7BEd-23" target="HZRKlwLpZjMJuqIR7BEd-21">
          <mxGeometry width="50" height="50" relative="1" as="geometry">
            <mxPoint x="500" y="690" as="sourcePoint" />
            <mxPoint x="740" y="785" as="targetPoint" />
          </mxGeometry>
        </mxCell>
        <mxCell id="HZRKlwLpZjMJuqIR7BEd-48" value="" style="edgeStyle=none;rounded=0;orthogonalLoop=1;jettySize=auto;html=1;" edge="1" parent="1" source="HZRKlwLpZjMJuqIR7BEd-49" target="HZRKlwLpZjMJuqIR7BEd-26">
          <mxGeometry relative="1" as="geometry" />
        </mxCell>
        <mxCell id="HZRKlwLpZjMJuqIR7BEd-49" value="Telemedicine" style="ellipse;whiteSpace=wrap;html=1;" vertex="1" parent="1">
          <mxGeometry x="1500" y="1182.5" width="140" height="70" as="geometry" />
        </mxCell>
        <mxCell id="HZRKlwLpZjMJuqIR7BEd-50" value="fitness expert&lt;br&gt;" style="shape=umlActor;verticalLabelPosition=bottom;verticalAlign=top;html=1;" vertex="1" parent="1">
          <mxGeometry x="1760" y="707.5" width="50" height="100" as="geometry" />
        </mxCell>
        <mxCell id="HZRKlwLpZjMJuqIR7BEd-51" value="determination of treatment" style="ellipse;whiteSpace=wrap;html=1;" vertex="1" parent="1">
          <mxGeometry x="1532.5" y="567.5" width="140" height="110" as="geometry" />
        </mxCell>
        <mxCell id="HZRKlwLpZjMJuqIR7BEd-52" value="Diet Excriciese" style="ellipse;whiteSpace=wrap;html=1;" vertex="1" parent="1">
          <mxGeometry x="1445" y="747" width="140" height="86" as="geometry" />
        </mxCell>
        <mxCell id="HZRKlwLpZjMJuqIR7BEd-53" style="edgeStyle=none;rounded=0;orthogonalLoop=1;jettySize=auto;html=1;dashed=1;exitX=0.023;exitY=0.746;exitDx=0;exitDy=0;exitPerimeter=0;" edge="1" parent="1" source="HZRKlwLpZjMJuqIR7BEd-52" target="HZRKlwLpZjMJuqIR7BEd-21">
          <mxGeometry relative="1" as="geometry">
            <mxPoint x="1450" y="697.5" as="sourcePoint" />
            <mxPoint x="1361.525" y="858.8499999999999" as="targetPoint" />
          </mxGeometry>
        </mxCell>
        <mxCell id="HZRKlwLpZjMJuqIR7BEd-54" value="" style="endArrow=none;html=1;rounded=0;entryX=0.529;entryY=0.712;entryDx=0;entryDy=0;exitX=1.005;exitY=0.334;exitDx=0;exitDy=0;entryPerimeter=0;exitPerimeter=0;strokeWidth=2;" edge="1" parent="1" source="HZRKlwLpZjMJuqIR7BEd-52" target="HZRKlwLpZjMJuqIR7BEd-50">
          <mxGeometry width="50" height="50" relative="1" as="geometry">
            <mxPoint x="1660" y="777.5" as="sourcePoint" />
            <mxPoint x="1759.87" y="740" as="targetPoint" />
          </mxGeometry>
        </mxCell>
        <mxCell id="HZRKlwLpZjMJuqIR7BEd-55" value="" style="endArrow=none;html=1;rounded=0;entryX=0.529;entryY=0.712;entryDx=0;entryDy=0;exitX=0.5;exitY=0.5;exitDx=0;exitDy=0;exitPerimeter=0;entryPerimeter=0;strokeWidth=2;" edge="1" parent="1" target="HZRKlwLpZjMJuqIR7BEd-50">
          <mxGeometry width="50" height="50" relative="1" as="geometry">
            <mxPoint x="1660" y="657.5" as="sourcePoint" />
            <mxPoint x="1759.87" y="620" as="targetPoint" />
          </mxGeometry>
        </mxCell>
        <mxCell id="HZRKlwLpZjMJuqIR7BEd-56" value="" style="endArrow=none;html=1;rounded=0;entryX=0.575;entryY=0.673;entryDx=0;entryDy=0;exitX=1;exitY=0.671;exitDx=0;exitDy=0;exitPerimeter=0;entryPerimeter=0;strokeWidth=2;" edge="1" parent="1" source="HZRKlwLpZjMJuqIR7BEd-45" target="HZRKlwLpZjMJuqIR7BEd-41">
          <mxGeometry width="50" height="50" relative="1" as="geometry">
            <mxPoint x="1620" y="1362.5" as="sourcePoint" />
            <mxPoint x="1719.87" y="1325" as="targetPoint" />
          </mxGeometry>
        </mxCell>
        <mxCell id="HZRKlwLpZjMJuqIR7BEd-57" value="advicess" style="ellipse;whiteSpace=wrap;html=1;" vertex="1" parent="1">
          <mxGeometry x="1281.25" y="602.5" width="172.5" height="100" as="geometry" />
        </mxCell>
        <mxCell id="HZRKlwLpZjMJuqIR7BEd-58" value="Diagnosis of diseases" style="ellipse;whiteSpace=wrap;html=1;" vertex="1" parent="1">
          <mxGeometry x="1453.75" y="1470" width="140" height="70" as="geometry" />
        </mxCell>
        <mxCell id="HZRKlwLpZjMJuqIR7BEd-59" value="" style="endArrow=none;html=1;rounded=0;exitX=0.969;exitY=0.308;exitDx=0;exitDy=0;exitPerimeter=0;strokeWidth=2;entryX=0;entryY=1;entryDx=0;entryDy=0;entryPerimeter=0;" edge="1" parent="1" source="HZRKlwLpZjMJuqIR7BEd-58" target="HZRKlwLpZjMJuqIR7BEd-41">
          <mxGeometry width="50" height="50" relative="1" as="geometry">
            <mxPoint x="1660" y="1422.5" as="sourcePoint" />
            <mxPoint x="1815" y="1310" as="targetPoint" />
          </mxGeometry>
        </mxCell>
        <mxCell id="HZRKlwLpZjMJuqIR7BEd-60" value="" style="endArrow=none;html=1;rounded=0;entryX=0;entryY=0.3333333333333333;entryDx=0;entryDy=0;entryPerimeter=0;exitX=1;exitY=0.5;exitDx=0;exitDy=0;strokeWidth=2;" edge="1" parent="1" source="HZRKlwLpZjMJuqIR7BEd-49" target="HZRKlwLpZjMJuqIR7BEd-41">
          <mxGeometry width="50" height="50" relative="1" as="geometry">
            <mxPoint x="1690" y="1065" as="sourcePoint" />
            <mxPoint x="1772.5" y="1138" as="targetPoint" />
          </mxGeometry>
        </mxCell>
        <mxCell id="HZRKlwLpZjMJuqIR7BEd-61" value="" style="endArrow=none;html=1;rounded=0;exitX=1;exitY=0.5;exitDx=0;exitDy=0;strokeWidth=2;entryX=0.546;entryY=0.696;entryDx=0;entryDy=0;entryPerimeter=0;" edge="1" parent="1" source="HZRKlwLpZjMJuqIR7BEd-57" target="HZRKlwLpZjMJuqIR7BEd-50">
          <mxGeometry width="50" height="50" relative="1" as="geometry">
            <mxPoint x="1600" y="747.5" as="sourcePoint" />
            <mxPoint x="1780" y="767.5" as="targetPoint" />
          </mxGeometry>
        </mxCell>
        <mxCell id="HZRKlwLpZjMJuqIR7BEd-62" value="Generate Report" style="ellipse;whiteSpace=wrap;html=1;" vertex="1" parent="1">
          <mxGeometry x="1435" y="355.5" width="170" height="70" as="geometry" />
        </mxCell>
        <mxCell id="HZRKlwLpZjMJuqIR7BEd-63" value="Manage Found" style="ellipse;whiteSpace=wrap;html=1;" vertex="1" parent="1">
          <mxGeometry x="1450" y="484.5" width="140" height="70" as="geometry" />
        </mxCell>
        <mxCell id="HZRKlwLpZjMJuqIR7BEd-64" value="System Manager" style="shape=umlActor;verticalLabelPosition=bottom;verticalAlign=top;html=1;" vertex="1" parent="1">
          <mxGeometry x="1770" y="385.5" width="40" height="90" as="geometry" />
        </mxCell>
        <mxCell id="HZRKlwLpZjMJuqIR7BEd-65" value="" style="endArrow=none;html=1;rounded=0;entryX=0.5;entryY=0.5;entryDx=0;entryDy=0;exitX=1;exitY=0.5;exitDx=0;exitDy=0;entryPerimeter=0;strokeWidth=2;" edge="1" parent="1" source="HZRKlwLpZjMJuqIR7BEd-62" target="HZRKlwLpZjMJuqIR7BEd-64">
          <mxGeometry width="50" height="50" relative="1" as="geometry">
            <mxPoint x="1635" y="365.5" as="sourcePoint" />
            <mxPoint x="1780" y="309.5" as="targetPoint" />
          </mxGeometry>
        </mxCell>
        <mxCell id="HZRKlwLpZjMJuqIR7BEd-66" value="" style="endArrow=none;html=1;rounded=0;entryX=0.5;entryY=0.5;entryDx=0;entryDy=0;exitX=1.005;exitY=0.334;exitDx=0;exitDy=0;entryPerimeter=0;exitPerimeter=0;strokeWidth=2;" edge="1" parent="1" target="HZRKlwLpZjMJuqIR7BEd-64">
          <mxGeometry width="50" height="50" relative="1" as="geometry">
            <mxPoint x="1585" y="511.5" as="sourcePoint" />
            <mxPoint x="1730" y="455.5" as="targetPoint" />
          </mxGeometry>
        </mxCell>
        <mxCell id="HZRKlwLpZjMJuqIR7BEd-67" value="Diet plan Report" style="ellipse;whiteSpace=wrap;html=1;" vertex="1" parent="1">
          <mxGeometry x="1245" y="285" width="110" height="50" as="geometry" />
        </mxCell>
        <mxCell id="HZRKlwLpZjMJuqIR7BEd-68" value="Helth checkup Report" style="ellipse;whiteSpace=wrap;html=1;" vertex="1" parent="1">
          <mxGeometry x="1250" y="420" width="105" height="60" as="geometry" />
        </mxCell>
        <mxCell id="HZRKlwLpZjMJuqIR7BEd-69" value="System Admin" style="shape=umlActor;verticalLabelPosition=bottom;verticalAlign=top;html=1;" vertex="1" parent="1">
          <mxGeometry x="259.07" y="1280" width="30" height="60" as="geometry" />
        </mxCell>
        <mxCell id="HZRKlwLpZjMJuqIR7BEd-70" value="Manage user account" style="ellipse;whiteSpace=wrap;html=1;" vertex="1" parent="1">
          <mxGeometry x="520" y="1540" width="140" height="70" as="geometry" />
        </mxCell>
        <mxCell id="HZRKlwLpZjMJuqIR7BEd-73" value="" style="endArrow=open;endFill=1;endSize=12;html=1;rounded=0;entryX=1;entryY=0;entryDx=0;entryDy=0;exitX=0;exitY=0.75;exitDx=0;exitDy=0;exitPerimeter=0;" edge="1" parent="1" target="HZRKlwLpZjMJuqIR7BEd-70">
          <mxGeometry width="160" relative="1" as="geometry">
            <mxPoint x="822.5" y="1480" as="sourcePoint" />
            <mxPoint x="996.25" y="1090" as="targetPoint" />
          </mxGeometry>
        </mxCell>
        <mxCell id="HZRKlwLpZjMJuqIR7BEd-74" value="" style="endArrow=open;endFill=1;endSize=12;html=1;rounded=0;entryX=1;entryY=0.5;entryDx=0;entryDy=0;exitX=0;exitY=0.5;exitDx=0;exitDy=0;" edge="1" parent="1" target="HZRKlwLpZjMJuqIR7BEd-70">
          <mxGeometry width="160" relative="1" as="geometry">
            <mxPoint x="811.25" y="1562.5" as="sourcePoint" />
            <mxPoint x="675.25" y="1220" as="targetPoint" />
          </mxGeometry>
        </mxCell>
        <mxCell id="HZRKlwLpZjMJuqIR7BEd-78" value="Authorization From&amp;nbsp; Admin" style="ellipse;whiteSpace=wrap;html=1;" vertex="1" parent="1">
          <mxGeometry x="1200" y="931.88" width="140" height="70" as="geometry" />
        </mxCell>
        <mxCell id="HZRKlwLpZjMJuqIR7BEd-79" value="" style="endArrow=none;html=1;rounded=0;entryX=0;entryY=1;entryDx=0;entryDy=0;jumpStyle=arc;jumpSize=18;strokeWidth=2;exitX=1;exitY=0.3333333333333333;exitDx=0;exitDy=0;exitPerimeter=0;" edge="1" parent="1" target="HZRKlwLpZjMJuqIR7BEd-78" source="HZRKlwLpZjMJuqIR7BEd-69">
          <mxGeometry width="50" height="50" relative="1" as="geometry">
            <mxPoint x="350" y="1190" as="sourcePoint" />
            <mxPoint x="776" y="1007" as="targetPoint" />
          </mxGeometry>
        </mxCell>
        <mxCell id="HZRKlwLpZjMJuqIR7BEd-80" value="" style="endArrow=none;html=1;rounded=0;entryX=1;entryY=1;entryDx=0;entryDy=0;startArrow=classic;startFill=1;dashed=1;exitX=0.336;exitY=0.039;exitDx=0;exitDy=0;exitPerimeter=0;jumpStyle=arc;jumpSize=16;" edge="1" parent="1" source="HZRKlwLpZjMJuqIR7BEd-78" target="HZRKlwLpZjMJuqIR7BEd-14">
          <mxGeometry width="50" height="50" relative="1" as="geometry">
            <mxPoint x="720" y="520" as="sourcePoint" />
            <mxPoint x="886" y="837" as="targetPoint" />
          </mxGeometry>
        </mxCell>
        <mxCell id="HZRKlwLpZjMJuqIR7BEd-81" value="&amp;lt;&amp;lt;include&amp;gt;&amp;gt;" style="text;html=1;align=center;verticalAlign=middle;resizable=0;points=[];autosize=1;" vertex="1" parent="1">
          <mxGeometry x="800" y="672.5" width="90" height="30" as="geometry" />
        </mxCell>
        <mxCell id="HZRKlwLpZjMJuqIR7BEd-82" value="&amp;lt;&amp;lt;include&amp;gt;&amp;gt;" style="text;html=1;align=center;verticalAlign=middle;resizable=0;points=[];autosize=1;" vertex="1" parent="1">
          <mxGeometry x="1190" y="557.5" width="90" height="30" as="geometry" />
        </mxCell>
        <mxCell id="HZRKlwLpZjMJuqIR7BEd-83" value="&amp;lt;&amp;lt;Extend&amp;gt;&amp;gt;" style="text;html=1;align=center;verticalAlign=middle;resizable=0;points=[];autosize=1;" vertex="1" parent="1">
          <mxGeometry x="1322.5" y="777.5" width="90" height="30" as="geometry" />
        </mxCell>
        <mxCell id="HZRKlwLpZjMJuqIR7BEd-85" style="edgeStyle=none;rounded=0;orthogonalLoop=1;jettySize=auto;html=1;entryX=0.003;entryY=0.311;entryDx=0;entryDy=0;entryPerimeter=0;exitX=1;exitY=0.5;exitDx=0;exitDy=0;" edge="1" parent="1" source="HZRKlwLpZjMJuqIR7BEd-67" target="HZRKlwLpZjMJuqIR7BEd-62">
          <mxGeometry relative="1" as="geometry">
            <mxPoint x="1425" y="295.5" as="sourcePoint" />
            <mxPoint x="1300" y="295.5" as="targetPoint" />
          </mxGeometry>
        </mxCell>
        <mxCell id="HZRKlwLpZjMJuqIR7BEd-86" style="rounded=0;orthogonalLoop=1;jettySize=auto;html=1;" edge="1" parent="1" source="HZRKlwLpZjMJuqIR7BEd-68">
          <mxGeometry relative="1" as="geometry">
            <mxPoint x="1395" y="370.5" as="sourcePoint" />
            <mxPoint x="1435" y="395.5" as="targetPoint" />
          </mxGeometry>
        </mxCell>
        <mxCell id="HZRKlwLpZjMJuqIR7BEd-87" value="&amp;lt;&amp;lt;include&amp;gt;&amp;gt;" style="endArrow=open;endSize=12;dashed=1;html=1;rounded=0;exitX=0.759;exitY=0.027;exitDx=0;exitDy=0;exitPerimeter=0;entryX=0;entryY=0.5;entryDx=0;entryDy=0;" edge="1" parent="1" source="HZRKlwLpZjMJuqIR7BEd-19" target="HZRKlwLpZjMJuqIR7BEd-18">
          <mxGeometry x="-0.0439" y="13" width="160" relative="1" as="geometry">
            <mxPoint x="700" y="470" as="sourcePoint" />
            <mxPoint x="810" y="469.62" as="targetPoint" />
            <mxPoint as="offset" />
          </mxGeometry>
        </mxCell>
        <mxCell id="HZRKlwLpZjMJuqIR7BEd-88" value="Contact Web site&lt;br&gt;&lt;br&gt;if user want see common question" style="ellipse;whiteSpace=wrap;html=1;" vertex="1" parent="1">
          <mxGeometry x="419.37" y="430" width="182.5" height="81" as="geometry" />
        </mxCell>
        <mxCell id="HZRKlwLpZjMJuqIR7BEd-89" value="" style="line;strokeWidth=1;fillColor=none;align=left;verticalAlign=middle;spacingTop=-1;spacingLeft=3;spacingRight=3;rotatable=0;labelPosition=right;points=[];portConstraint=eastwest;strokeColor=inherit;" vertex="1" parent="1">
          <mxGeometry x="421.87" y="462" width="180" height="8" as="geometry" />
        </mxCell>
        <mxCell id="HZRKlwLpZjMJuqIR7BEd-90" value="check FAQs&lt;br&gt;&lt;br&gt;if user wants to know&lt;br&gt;more about question" style="ellipse;whiteSpace=wrap;html=1;" vertex="1" parent="1">
          <mxGeometry x="797.5" y="280" width="160" height="70" as="geometry" />
        </mxCell>
        <mxCell id="HZRKlwLpZjMJuqIR7BEd-91" value="" style="line;strokeWidth=1;align=left;verticalAlign=middle;spacingTop=-1;spacingLeft=3;spacingRight=3;rotatable=0;labelPosition=right;points=[];portConstraint=eastwest;" vertex="1" parent="1">
          <mxGeometry x="795" y="308.75" width="165" height="12.5" as="geometry" />
        </mxCell>
        <mxCell id="HZRKlwLpZjMJuqIR7BEd-92" style="edgeStyle=none;rounded=0;orthogonalLoop=1;jettySize=auto;html=1;dashed=1;exitX=0;exitY=0.5;exitDx=0;exitDy=0;entryX=1;entryY=0;entryDx=0;entryDy=0;" edge="1" parent="1" source="HZRKlwLpZjMJuqIR7BEd-90" target="HZRKlwLpZjMJuqIR7BEd-88">
          <mxGeometry relative="1" as="geometry">
            <mxPoint x="740" y="360" as="sourcePoint" />
            <mxPoint x="526" y="287" as="targetPoint" />
          </mxGeometry>
        </mxCell>
        <mxCell id="HZRKlwLpZjMJuqIR7BEd-94" value="send message" style="ellipse;whiteSpace=wrap;html=1;" vertex="1" parent="1">
          <mxGeometry x="760" y="400" width="140" height="35" as="geometry" />
        </mxCell>
        <mxCell id="HZRKlwLpZjMJuqIR7BEd-95" value="&amp;lt;&amp;lt;Extend&amp;gt;&amp;gt;" style="html=1;verticalAlign=bottom;endArrow=open;dashed=1;endSize=8;elbow=vertical;rounded=0;entryX=1;entryY=0;entryDx=0;entryDy=0;exitX=0.5;exitY=1;exitDx=0;exitDy=0;" edge="1" parent="1" source="HZRKlwLpZjMJuqIR7BEd-90" target="HZRKlwLpZjMJuqIR7BEd-94">
          <mxGeometry x="-0.0289" y="-4" relative="1" as="geometry">
            <mxPoint x="830" y="360" as="sourcePoint" />
            <mxPoint x="634" y="454" as="targetPoint" />
            <mxPoint x="1" as="offset" />
          </mxGeometry>
        </mxCell>
        <mxCell id="HZRKlwLpZjMJuqIR7BEd-96" style="edgeStyle=none;rounded=0;orthogonalLoop=1;jettySize=auto;html=1;exitX=0.979;exitY=0.331;exitDx=0;exitDy=0;exitPerimeter=0;dashed=1;" edge="1" parent="1" source="HZRKlwLpZjMJuqIR7BEd-88" target="HZRKlwLpZjMJuqIR7BEd-94">
          <mxGeometry relative="1" as="geometry">
            <mxPoint x="640" y="430" as="sourcePoint" />
            <mxPoint x="691" y="446" as="targetPoint" />
          </mxGeometry>
        </mxCell>
        <mxCell id="HZRKlwLpZjMJuqIR7BEd-97" value="&amp;lt;&amp;lt;include&amp;gt;&amp;gt;" style="text;html=1;align=center;verticalAlign=middle;resizable=0;points=[];autosize=1;" vertex="1" parent="1">
          <mxGeometry x="630" y="430" width="90" height="30" as="geometry" />
        </mxCell>
        <mxCell id="HZRKlwLpZjMJuqIR7BEd-98" value="" style="endArrow=none;html=1;rounded=0;entryX=0.5;entryY=0.5;entryDx=0;entryDy=0;entryPerimeter=0;exitX=0.55;exitY=0.029;exitDx=0;exitDy=0;strokeWidth=2;exitPerimeter=0;" edge="1" parent="1" target="HZRKlwLpZjMJuqIR7BEd-5" source="HZRKlwLpZjMJuqIR7BEd-88">
          <mxGeometry width="50" height="50" relative="1" as="geometry">
            <mxPoint x="514.69" y="419.5" as="sourcePoint" />
            <mxPoint x="322.69" y="362.5" as="targetPoint" />
          </mxGeometry>
        </mxCell>
        <mxCell id="HZRKlwLpZjMJuqIR7BEd-99" value="payment" style="ellipse;whiteSpace=wrap;html=1;" vertex="1" parent="1">
          <mxGeometry x="1392.5" y="1058.13" width="167.5" height="81.87" as="geometry" />
        </mxCell>
        <mxCell id="HZRKlwLpZjMJuqIR7BEd-100" value="" style="html=1;verticalAlign=bottom;endArrow=open;endSize=8;elbow=vertical;rounded=0;exitX=0.5;exitY=0;exitDx=0;exitDy=0;entryX=0.267;entryY=1.007;entryDx=0;entryDy=0;entryPerimeter=0;dashed=1;" edge="1" parent="1" source="HZRKlwLpZjMJuqIR7BEd-26" target="HZRKlwLpZjMJuqIR7BEd-99">
          <mxGeometry y="-20" relative="1" as="geometry">
            <mxPoint x="1215" y="1042.5" as="sourcePoint" />
            <mxPoint x="1461" y="1161.5" as="targetPoint" />
            <mxPoint as="offset" />
          </mxGeometry>
        </mxCell>
        <mxCell id="HZRKlwLpZjMJuqIR7BEd-101" value="&amp;lt;&amp;lt;include&amp;gt;&amp;gt;" style="text;html=1;align=center;verticalAlign=middle;resizable=0;points=[];autosize=1;" vertex="1" parent="1">
          <mxGeometry x="1257.5" y="1150" width="90" height="30" as="geometry" />
        </mxCell>
        <mxCell id="HZRKlwLpZjMJuqIR7BEd-102" value="Bank" style="shape=umlActor;verticalLabelPosition=bottom;verticalAlign=top;html=1;" vertex="1" parent="1">
          <mxGeometry x="1760" y="947.5" width="40" height="82.5" as="geometry" />
        </mxCell>
        <mxCell id="HZRKlwLpZjMJuqIR7BEd-103" value="" style="endArrow=none;html=1;rounded=0;entryX=0.438;entryY=0.713;entryDx=0;entryDy=0;entryPerimeter=0;exitX=1;exitY=0.5;exitDx=0;exitDy=0;strokeWidth=2;" edge="1" parent="1" source="HZRKlwLpZjMJuqIR7BEd-99" target="HZRKlwLpZjMJuqIR7BEd-102">
          <mxGeometry width="50" height="50" relative="1" as="geometry">
            <mxPoint x="1415" y="972.5" as="sourcePoint" />
            <mxPoint x="1753" y="878.5" as="targetPoint" />
          </mxGeometry>
        </mxCell>
        <mxCell id="HZRKlwLpZjMJuqIR7BEd-104" style="edgeStyle=none;rounded=0;orthogonalLoop=1;jettySize=auto;html=1;dashed=1;exitX=0;exitY=0.5;exitDx=0;exitDy=0;" edge="1" parent="1" source="HZRKlwLpZjMJuqIR7BEd-16" target="HZRKlwLpZjMJuqIR7BEd-19">
          <mxGeometry relative="1" as="geometry">
            <mxPoint x="790" y="580" as="sourcePoint" />
            <mxPoint x="576" y="508" as="targetPoint" />
          </mxGeometry>
        </mxCell>
        <mxCell id="HZRKlwLpZjMJuqIR7BEd-105" value="&amp;lt;&amp;lt;Extend&amp;gt;&amp;gt;" style="text;html=1;align=center;verticalAlign=middle;resizable=0;points=[];autosize=1;" vertex="1" parent="1">
          <mxGeometry x="760" y="580.5" width="90" height="30" as="geometry" />
        </mxCell>
        <mxCell id="HZRKlwLpZjMJuqIR7BEd-106" value="" style="html=1;verticalAlign=bottom;endArrow=open;endSize=8;elbow=vertical;rounded=0;exitX=0;exitY=0;exitDx=0;exitDy=0;dashed=1;" edge="1" parent="1" source="HZRKlwLpZjMJuqIR7BEd-57">
          <mxGeometry y="-20" relative="1" as="geometry">
            <mxPoint x="1320" y="500" as="sourcePoint" />
            <mxPoint x="1480" y="420" as="targetPoint" />
            <mxPoint as="offset" />
          </mxGeometry>
        </mxCell>
        <mxCell id="HZRKlwLpZjMJuqIR7BEd-107" value="&amp;lt;&amp;lt;include&amp;gt;&amp;gt;" style="text;html=1;align=center;verticalAlign=middle;resizable=0;points=[];autosize=1;" vertex="1" parent="1">
          <mxGeometry x="1380" y="465.5" width="90" height="30" as="geometry" />
        </mxCell>
        <mxCell id="HZRKlwLpZjMJuqIR7BEd-108" value="+788" style="html=1;verticalAlign=bottom;endArrow=classic;endSize=8;elbow=vertical;rounded=0;exitX=0.976;exitY=0.347;exitDx=0;exitDy=0;entryX=0.028;entryY=0.25;entryDx=0;entryDy=0;entryPerimeter=0;dashed=1;exitPerimeter=0;jumpStyle=arc;jumpSize=17;endFill=1;" edge="1" parent="1" source="HZRKlwLpZjMJuqIR7BEd-25" target="HZRKlwLpZjMJuqIR7BEd-26">
          <mxGeometry x="0.0352" y="-49" relative="1" as="geometry">
            <mxPoint x="830" y="970" as="sourcePoint" />
            <mxPoint x="1002" y="875" as="targetPoint" />
            <mxPoint as="offset" />
          </mxGeometry>
        </mxCell>
        <mxCell id="HZRKlwLpZjMJuqIR7BEd-109" value="&amp;lt;&amp;lt;Extend&amp;gt;&amp;gt;" style="text;html=1;align=center;verticalAlign=middle;resizable=0;points=[];autosize=1;" vertex="1" parent="1">
          <mxGeometry x="890" y="1128.13" width="90" height="30" as="geometry" />
        </mxCell>
        <mxCell id="HZRKlwLpZjMJuqIR7BEd-110" value="credit/debit card" style="ellipse;whiteSpace=wrap;html=1;" vertex="1" parent="1">
          <mxGeometry x="1266.25" y="1005.63" width="120" height="52.5" as="geometry" />
        </mxCell>
        <mxCell id="HZRKlwLpZjMJuqIR7BEd-111" style="edgeStyle=none;rounded=0;orthogonalLoop=1;jettySize=auto;html=1;entryX=0;entryY=0.5;entryDx=0;entryDy=0;" edge="1" parent="1" source="HZRKlwLpZjMJuqIR7BEd-110" target="HZRKlwLpZjMJuqIR7BEd-99">
          <mxGeometry relative="1" as="geometry">
            <mxPoint x="1300" y="900" as="sourcePoint" />
            <mxPoint x="1175" y="900" as="targetPoint" />
          </mxGeometry>
        </mxCell>
        <mxCell id="HZRKlwLpZjMJuqIR7BEd-112" value="Work Out plan" style="ellipse;whiteSpace=wrap;html=1;" vertex="1" parent="1">
          <mxGeometry x="1176.25" y="340" width="140" height="70" as="geometry" />
        </mxCell>
        <mxCell id="HZRKlwLpZjMJuqIR7BEd-113" style="edgeStyle=none;rounded=0;orthogonalLoop=1;jettySize=auto;html=1;entryX=0;entryY=0.5;entryDx=0;entryDy=0;exitX=1;exitY=0.5;exitDx=0;exitDy=0;" edge="1" parent="1" source="HZRKlwLpZjMJuqIR7BEd-112" target="HZRKlwLpZjMJuqIR7BEd-62">
          <mxGeometry relative="1" as="geometry">
            <mxPoint x="1440" y="250" as="sourcePoint" />
            <mxPoint x="1315" y="250" as="targetPoint" />
          </mxGeometry>
        </mxCell>
        <mxCell id="HZRKlwLpZjMJuqIR7BEd-114" value="reset password" style="ellipse;whiteSpace=wrap;html=1;" vertex="1" parent="1">
          <mxGeometry x="1070" y="587.5" width="140" height="32.5" as="geometry" />
        </mxCell>
        <mxCell id="HZRKlwLpZjMJuqIR7BEd-115" value="&amp;lt;&amp;lt;Extend&amp;gt;&amp;gt;" style="html=1;verticalAlign=bottom;endArrow=open;dashed=1;endSize=8;elbow=vertical;rounded=0;exitX=0;exitY=0.5;exitDx=0;exitDy=0;" edge="1" parent="1" source="HZRKlwLpZjMJuqIR7BEd-114">
          <mxGeometry relative="1" as="geometry">
            <mxPoint x="1040" y="550" as="sourcePoint" />
            <mxPoint x="990" y="570" as="targetPoint" />
          </mxGeometry>
        </mxCell>
        <mxCell id="HZRKlwLpZjMJuqIR7BEd-116" value="Send OTP or mail" style="ellipse;whiteSpace=wrap;html=1;" vertex="1" parent="1">
          <mxGeometry x="1095" y="509.5" width="140" height="28" as="geometry" />
        </mxCell>
        <mxCell id="HZRKlwLpZjMJuqIR7BEd-117" value="" style="html=1;verticalAlign=bottom;endArrow=open;endSize=8;elbow=vertical;rounded=0;dashed=1;" edge="1" parent="1">
          <mxGeometry y="-20" relative="1" as="geometry">
            <mxPoint x="1150" y="590" as="sourcePoint" />
            <mxPoint x="1150" y="540" as="targetPoint" />
            <mxPoint as="offset" />
          </mxGeometry>
        </mxCell>
        <mxCell id="HZRKlwLpZjMJuqIR7BEd-118" value="&amp;lt;&amp;lt;include&amp;gt;&amp;gt;" style="text;html=1;align=center;verticalAlign=middle;resizable=0;points=[];autosize=1;" vertex="1" parent="1">
          <mxGeometry x="1070" y="545" width="90" height="30" as="geometry" />
        </mxCell>
        <mxCell id="HZRKlwLpZjMJuqIR7BEd-119" value="" style="endArrow=none;html=1;rounded=0;entryX=0;entryY=0.5;entryDx=0;entryDy=0;strokeWidth=2;" edge="1" parent="1" target="HZRKlwLpZjMJuqIR7BEd-38">
          <mxGeometry width="50" height="50" relative="1" as="geometry">
            <mxPoint x="290" y="620" as="sourcePoint" />
            <mxPoint x="573" y="711" as="targetPoint" />
          </mxGeometry>
        </mxCell>
        <mxCell id="HZRKlwLpZjMJuqIR7BEd-129" value="view user account" style="ellipse;whiteSpace=wrap;html=1;" vertex="1" parent="1">
          <mxGeometry x="807.5" y="1640" width="165" height="100" as="geometry" />
        </mxCell>
        <mxCell id="HZRKlwLpZjMJuqIR7BEd-134" value="" style="line;strokeWidth=1;align=left;verticalAlign=middle;spacingTop=-1;spacingLeft=3;spacingRight=3;rotatable=0;labelPosition=right;points=[];portConstraint=eastwest;" vertex="1" parent="1">
          <mxGeometry x="811.25" y="1700" width="161.25" height="8" as="geometry" />
        </mxCell>
        <mxCell id="HZRKlwLpZjMJuqIR7BEd-137" value="&lt;font style=&quot;font-size: 10px;&quot;&gt;if&amp;nbsp; admin wont to modify&lt;/font&gt;" style="text;html=1;align=center;verticalAlign=middle;resizable=0;points=[];autosize=1;" vertex="1" parent="1">
          <mxGeometry x="827.5" y="1708" width="120" height="30" as="geometry" />
        </mxCell>
        <mxCell id="HZRKlwLpZjMJuqIR7BEd-140" value="&lt;div&gt;create/delete/update&lt;/div&gt;&lt;div&gt;user account&lt;br&gt;&lt;/div&gt;" style="ellipse;whiteSpace=wrap;html=1;" vertex="1" parent="1">
          <mxGeometry x="1050" y="1670" width="140" height="70" as="geometry" />
        </mxCell>
        <mxCell id="HZRKlwLpZjMJuqIR7BEd-141" value="&amp;lt;&amp;lt;extend&amp;gt;&amp;gt;" style="endArrow=open;endSize=12;dashed=1;html=1;rounded=0;exitX=0;exitY=0.5;exitDx=0;exitDy=0;entryX=1;entryY=1;entryDx=0;entryDy=0;" edge="1" parent="1" source="HZRKlwLpZjMJuqIR7BEd-140" target="HZRKlwLpZjMJuqIR7BEd-129">
          <mxGeometry x="-0.2598" y="-13" width="160" relative="1" as="geometry">
            <mxPoint x="882.5" y="1790" as="sourcePoint" />
            <mxPoint x="1042.5" y="1790" as="targetPoint" />
            <mxPoint x="1" as="offset" />
          </mxGeometry>
        </mxCell>
        <mxCell id="HZRKlwLpZjMJuqIR7BEd-142" value="Use" style="endArrow=open;endSize=12;dashed=1;html=1;rounded=0;entryX=0.572;entryY=1.012;entryDx=0;entryDy=0;entryPerimeter=0;exitX=0.01;exitY=0.628;exitDx=0;exitDy=0;exitPerimeter=0;" edge="1" parent="1" source="HZRKlwLpZjMJuqIR7BEd-129" target="HZRKlwLpZjMJuqIR7BEd-70">
          <mxGeometry x="1" y="570" width="160" relative="1" as="geometry">
            <mxPoint x="750.5" y="1680.5" as="sourcePoint" />
            <mxPoint x="644.5" y="1679.5" as="targetPoint" />
            <mxPoint x="-544" y="-569" as="offset" />
          </mxGeometry>
        </mxCell>
        <mxCell id="HZRKlwLpZjMJuqIR7BEd-143" value="&amp;lt;&amp;lt;include&amp;gt;&amp;gt;" style="text;html=1;align=center;verticalAlign=middle;resizable=0;points=[];autosize=1;rotation=30;" vertex="1" parent="1">
          <mxGeometry x="679.37" y="1635" width="90" height="30" as="geometry" />
        </mxCell>
        <mxCell id="HZRKlwLpZjMJuqIR7BEd-149" value="manage regualar user account" style="ellipse;whiteSpace=wrap;html=1;" vertex="1" parent="1">
          <mxGeometry x="807.5" y="1530" width="140" height="70" as="geometry" />
        </mxCell>
        <mxCell id="HZRKlwLpZjMJuqIR7BEd-162" value="" style="endArrow=block;endFill=1;html=1;rounded=0;strokeWidth=3;exitX=0.5;exitY=0;exitDx=0;exitDy=0;exitPerimeter=0;" edge="1" parent="1" source="HZRKlwLpZjMJuqIR7BEd-12">
          <mxGeometry width="160" relative="1" as="geometry">
            <mxPoint x="290" y="570" as="sourcePoint" />
            <mxPoint x="290" y="370" as="targetPoint" />
          </mxGeometry>
        </mxCell>
        <mxCell id="HZRKlwLpZjMJuqIR7BEd-163" value="online transfer" style="ellipse;whiteSpace=wrap;html=1;" vertex="1" parent="1">
          <mxGeometry x="1160" y="1058.13" width="120" height="70" as="geometry" />
        </mxCell>
        <mxCell id="HZRKlwLpZjMJuqIR7BEd-166" value="manage admin user account" style="ellipse;whiteSpace=wrap;html=1;" vertex="1" parent="1">
          <mxGeometry x="825" y="1440" width="140" height="70" as="geometry" />
        </mxCell>
        <mxCell id="HZRKlwLpZjMJuqIR7BEd-167" value="manage diet meal" style="ellipse;whiteSpace=wrap;html=1;" vertex="1" parent="1">
          <mxGeometry x="550" y="1420" width="140" height="70" as="geometry" />
        </mxCell>
        <mxCell id="HZRKlwLpZjMJuqIR7BEd-168" value="&lt;div&gt;add/remove/edit&lt;/div&gt;&lt;div&gt;diet palns&lt;br&gt;&lt;/div&gt;" style="ellipse;whiteSpace=wrap;html=1;" vertex="1" parent="1">
          <mxGeometry x="795" y="1270" width="140" height="70" as="geometry" />
        </mxCell>
        <mxCell id="HZRKlwLpZjMJuqIR7BEd-169" value="manage diet meal palns" style="ellipse;whiteSpace=wrap;html=1;" vertex="1" parent="1">
          <mxGeometry x="807.5" y="1350" width="140" height="70" as="geometry" />
        </mxCell>
        <mxCell id="HZRKlwLpZjMJuqIR7BEd-170" style="edgeStyle=none;rounded=0;orthogonalLoop=1;jettySize=auto;html=1;entryX=0.066;entryY=0.726;entryDx=0;entryDy=0;exitX=1;exitY=0.5;exitDx=0;exitDy=0;entryPerimeter=0;" edge="1" parent="1" source="HZRKlwLpZjMJuqIR7BEd-163" target="HZRKlwLpZjMJuqIR7BEd-99">
          <mxGeometry relative="1" as="geometry">
            <mxPoint x="1309.25" y="997.75" as="sourcePoint" />
            <mxPoint x="1316.25" y="1043.75" as="targetPoint" />
          </mxGeometry>
        </mxCell>
        <mxCell id="HZRKlwLpZjMJuqIR7BEd-173" value="" style="endArrow=none;endFill=0;endSize=12;html=1;rounded=0;entryX=0.623;entryY=-0.005;entryDx=0;entryDy=0;exitX=-0.005;exitY=0.697;exitDx=0;exitDy=0;exitPerimeter=0;entryPerimeter=0;dashed=1;startArrow=classic;startFill=1;" edge="1" parent="1" source="HZRKlwLpZjMJuqIR7BEd-168" target="HZRKlwLpZjMJuqIR7BEd-167">
          <mxGeometry width="160" relative="1" as="geometry">
            <mxPoint x="770" y="1260" as="sourcePoint" />
            <mxPoint x="650.5" y="1293" as="targetPoint" />
          </mxGeometry>
        </mxCell>
        <mxCell id="HZRKlwLpZjMJuqIR7BEd-174" value="" style="endArrow=open;endFill=1;endSize=12;html=1;rounded=0;entryX=1;entryY=0.5;entryDx=0;entryDy=0;exitX=0;exitY=0.5;exitDx=0;exitDy=0;" edge="1" parent="1" source="HZRKlwLpZjMJuqIR7BEd-169" target="HZRKlwLpZjMJuqIR7BEd-167">
          <mxGeometry width="160" relative="1" as="geometry">
            <mxPoint x="820" y="1320" as="sourcePoint" />
            <mxPoint x="700.5" y="1353" as="targetPoint" />
          </mxGeometry>
        </mxCell>
        <mxCell id="HZRKlwLpZjMJuqIR7BEd-178" value="" style="endArrow=none;html=1;rounded=0;entryX=0;entryY=0.5;entryDx=0;entryDy=0;strokeWidth=2;exitX=0.5;exitY=0.5;exitDx=0;exitDy=0;exitPerimeter=0;" edge="1" parent="1" source="HZRKlwLpZjMJuqIR7BEd-69" target="HZRKlwLpZjMJuqIR7BEd-167">
          <mxGeometry width="50" height="50" relative="1" as="geometry">
            <mxPoint x="480" y="1250" as="sourcePoint" />
            <mxPoint x="767" y="1578" as="targetPoint" />
          </mxGeometry>
        </mxCell>
        <mxCell id="HZRKlwLpZjMJuqIR7BEd-179" value="manage health check ups" style="ellipse;whiteSpace=wrap;html=1;" vertex="1" parent="1">
          <mxGeometry x="539.37" y="1280" width="140" height="70" as="geometry" />
        </mxCell>
        <mxCell id="HZRKlwLpZjMJuqIR7BEd-181" value="&lt;div&gt;add/remove/edit&lt;/div&gt;&lt;div&gt;health check up system&lt;br&gt;&lt;/div&gt;" style="ellipse;whiteSpace=wrap;html=1;" vertex="1" parent="1">
          <mxGeometry x="778.12" y="1180" width="140" height="70" as="geometry" />
        </mxCell>
        <mxCell id="HZRKlwLpZjMJuqIR7BEd-182" value="" style="endArrow=none;endFill=0;endSize=12;html=1;rounded=0;entryX=1;entryY=0;entryDx=0;entryDy=0;exitX=0;exitY=0.607;exitDx=0;exitDy=0;exitPerimeter=0;dashed=1;startArrow=classic;startFill=1;" edge="1" parent="1" source="HZRKlwLpZjMJuqIR7BEd-181" target="HZRKlwLpZjMJuqIR7BEd-179">
          <mxGeometry width="160" relative="1" as="geometry">
            <mxPoint x="837.75" y="1170" as="sourcePoint" />
            <mxPoint x="728.75" y="1219" as="targetPoint" />
          </mxGeometry>
        </mxCell>
        <mxCell id="HZRKlwLpZjMJuqIR7BEd-184" value="" style="endArrow=none;html=1;rounded=0;entryX=0;entryY=0.5;entryDx=0;entryDy=0;strokeWidth=2;exitX=0.5;exitY=0.5;exitDx=0;exitDy=0;exitPerimeter=0;" edge="1" parent="1" source="HZRKlwLpZjMJuqIR7BEd-69" target="HZRKlwLpZjMJuqIR7BEd-179">
          <mxGeometry width="50" height="50" relative="1" as="geometry">
            <mxPoint x="490" y="1230" as="sourcePoint" />
            <mxPoint x="788" y="1405" as="targetPoint" />
          </mxGeometry>
        </mxCell>
        <mxCell id="HZRKlwLpZjMJuqIR7BEd-196" style="edgeStyle=none;rounded=0;orthogonalLoop=1;jettySize=auto;html=1;exitX=0.3;exitY=0.003;exitDx=0;exitDy=0;entryX=0.5;entryY=1;entryDx=0;entryDy=0;exitPerimeter=0;" edge="1" parent="1" source="HZRKlwLpZjMJuqIR7BEd-43" target="HZRKlwLpZjMJuqIR7BEd-26">
          <mxGeometry relative="1" as="geometry">
            <mxPoint x="1380" y="1350.03" as="sourcePoint" />
            <mxPoint x="1345.050466830909" y="1439.9991171173333" as="targetPoint" />
          </mxGeometry>
        </mxCell>
        <mxCell id="HZRKlwLpZjMJuqIR7BEd-203" value="" style="endArrow=block;endFill=1;html=1;rounded=0;strokeWidth=3;exitX=0.5;exitY=0;exitDx=0;exitDy=0;exitPerimeter=0;" edge="1" parent="1" source="HZRKlwLpZjMJuqIR7BEd-69">
          <mxGeometry width="160" relative="1" as="geometry">
            <mxPoint x="295" y="1280" as="sourcePoint" />
            <mxPoint x="274" y="1090" as="targetPoint" />
          </mxGeometry>
        </mxCell>
        <mxCell id="HZRKlwLpZjMJuqIR7BEd-23" value="Nutritionist" style="shape=umlActor;verticalLabelPosition=bottom;verticalAlign=top;html=1;outlineConnect=0;" vertex="1" parent="1">
          <mxGeometry x="250" y="998.13" width="48.13" height="60" as="geometry" />
        </mxCell>
        <mxCell id="HZRKlwLpZjMJuqIR7BEd-205" value="" style="html=1;verticalAlign=bottom;endArrow=open;endSize=8;elbow=vertical;rounded=0;exitX=1;exitY=1;exitDx=0;exitDy=0;entryX=0.5;entryY=0;entryDx=0;entryDy=0;dashed=1;" edge="1" parent="1" source="HZRKlwLpZjMJuqIR7BEd-21" target="HZRKlwLpZjMJuqIR7BEd-99">
          <mxGeometry y="-20" relative="1" as="geometry">
            <mxPoint x="1430" y="950" as="sourcePoint" />
            <mxPoint x="1640" y="768" as="targetPoint" />
            <mxPoint as="offset" />
          </mxGeometry>
        </mxCell>
        <mxCell id="HZRKlwLpZjMJuqIR7BEd-206" value="&amp;lt;&amp;lt;include&amp;gt;&amp;gt;" style="text;html=1;align=center;verticalAlign=middle;resizable=0;points=[];autosize=1;" vertex="1" parent="1">
          <mxGeometry x="1355" y="897.5" width="90" height="30" as="geometry" />
        </mxCell>
        <mxCell id="HZRKlwLpZjMJuqIR7BEd-207" value="&amp;lt;&amp;lt;include&amp;gt;&amp;gt;" style="text;html=1;align=center;verticalAlign=middle;resizable=0;points=[];autosize=1;rotation=-25;" vertex="1" parent="1">
          <mxGeometry x="679.3711431702998" y="1320.0003810567666" width="90" height="30" as="geometry" />
        </mxCell>
        <mxCell id="HZRKlwLpZjMJuqIR7BEd-208" value="&amp;lt;&amp;lt;include&amp;gt;&amp;gt;" style="text;html=1;align=center;verticalAlign=middle;resizable=0;points=[];autosize=1;rotation=-25;" vertex="1" parent="1">
          <mxGeometry x="700.0011431702998" y="1180.0003810567666" width="90" height="30" as="geometry" />
        </mxCell>
        <mxCell id="HZRKlwLpZjMJuqIR7BEd-212" value="" style="endArrow=none;html=1;rounded=0;entryX=0;entryY=0;entryDx=0;entryDy=0;strokeWidth=2;exitX=1;exitY=1;exitDx=0;exitDy=0;exitPerimeter=0;" edge="1" parent="1" source="HZRKlwLpZjMJuqIR7BEd-69" target="HZRKlwLpZjMJuqIR7BEd-70">
          <mxGeometry width="50" height="50" relative="1" as="geometry">
            <mxPoint x="410" y="1470" as="sourcePoint" />
            <mxPoint x="705" y="1595" as="targetPoint" />
          </mxGeometry>
        </mxCell>
        <mxCell id="HZRKlwLpZjMJuqIR7BEd-217" value="view user account" style="ellipse;whiteSpace=wrap;html=1;" vertex="1" parent="1">
          <mxGeometry x="808" y="1640" width="165" height="100" as="geometry" />
        </mxCell>
        <mxCell id="HZRKlwLpZjMJuqIR7BEd-218" value="" style="line;strokeWidth=1;align=left;verticalAlign=middle;spacingTop=-1;spacingLeft=3;spacingRight=3;rotatable=0;labelPosition=right;points=[];portConstraint=eastwest;" vertex="1" parent="1">
          <mxGeometry x="803.75" y="1692" width="161.25" height="8" as="geometry" />
        </mxCell>
        <mxCell id="HZRKlwLpZjMJuqIR7BEd-219" value="&lt;font style=&quot;font-size: 10px;&quot;&gt;if&amp;nbsp; admin wont to modify&lt;/font&gt;" style="text;html=1;align=center;verticalAlign=middle;resizable=0;points=[];autosize=1;" vertex="1" parent="1">
          <mxGeometry x="828" y="1708" width="120" height="30" as="geometry" />
        </mxCell>
        <mxCell id="HZRKlwLpZjMJuqIR7BEd-220" value="&amp;lt;&amp;lt;extend&amp;gt;&amp;gt;" style="endArrow=open;endSize=12;dashed=1;html=1;rounded=0;exitX=0;exitY=0.5;exitDx=0;exitDy=0;entryX=1;entryY=1;entryDx=0;entryDy=0;" edge="1" source="HZRKlwLpZjMJuqIR7BEd-223" target="HZRKlwLpZjMJuqIR7BEd-217" parent="1">
          <mxGeometry x="-0.2598" y="-13" width="160" relative="1" as="geometry">
            <mxPoint x="883" y="1790" as="sourcePoint" />
            <mxPoint x="1043" y="1790" as="targetPoint" />
            <mxPoint x="1" as="offset" />
          </mxGeometry>
        </mxCell>
        <mxCell id="HZRKlwLpZjMJuqIR7BEd-221" value="manage regualar user account" style="ellipse;whiteSpace=wrap;html=1;" vertex="1" parent="1">
          <mxGeometry x="808" y="1530" width="140" height="70" as="geometry" />
        </mxCell>
        <mxCell id="HZRKlwLpZjMJuqIR7BEd-222" value="manage admin user account" style="ellipse;whiteSpace=wrap;html=1;" vertex="1" parent="1">
          <mxGeometry x="825.5" y="1440" width="140" height="70" as="geometry" />
        </mxCell>
        <mxCell id="HZRKlwLpZjMJuqIR7BEd-223" value="&lt;div&gt;create/delete/update&lt;/div&gt;&lt;div&gt;user account&lt;br&gt;&lt;/div&gt;" style="ellipse;whiteSpace=wrap;html=1;" vertex="1" parent="1">
          <mxGeometry x="1050.5" y="1670" width="140" height="70" as="geometry" />
        </mxCell>
        <mxCell id="HZRKlwLpZjMJuqIR7BEd-224" value="" style="endArrow=open;endFill=1;endSize=12;html=1;rounded=0;entryX=1;entryY=0;entryDx=0;entryDy=0;exitX=0;exitY=0.75;exitDx=0;exitDy=0;exitPerimeter=0;" edge="1" parent="1">
          <mxGeometry width="160" relative="1" as="geometry">
            <mxPoint x="823" y="1480" as="sourcePoint" />
            <mxPoint x="639.5" y="1550" as="targetPoint" />
          </mxGeometry>
        </mxCell>
        <mxCell id="HZRKlwLpZjMJuqIR7BEd-225" value="activate" style="ellipse;whiteSpace=wrap;html=1;" vertex="1" parent="1">
          <mxGeometry x="440" y="1658" width="120.63" height="50" as="geometry" />
        </mxCell>
        <mxCell id="HZRKlwLpZjMJuqIR7BEd-226" value="deactivate" style="ellipse;whiteSpace=wrap;html=1;" vertex="1" parent="1">
          <mxGeometry x="580" y="1665" width="110" height="50" as="geometry" />
        </mxCell>
        <mxCell id="HZRKlwLpZjMJuqIR7BEd-228" value="" style="endArrow=open;endFill=1;endSize=12;html=1;rounded=0;entryX=0.071;entryY=0.857;entryDx=0;entryDy=0;entryPerimeter=0;exitX=0.5;exitY=0;exitDx=0;exitDy=0;" edge="1" parent="1" source="HZRKlwLpZjMJuqIR7BEd-225" target="HZRKlwLpZjMJuqIR7BEd-70">
          <mxGeometry width="160" relative="1" as="geometry">
            <mxPoint x="345" y="1635" as="sourcePoint" />
            <mxPoint x="505" y="1635" as="targetPoint" />
          </mxGeometry>
        </mxCell>
        <mxCell id="HZRKlwLpZjMJuqIR7BEd-229" value="" style="endArrow=open;endFill=1;endSize=12;html=1;rounded=0;entryX=0.42;entryY=1.048;entryDx=0;entryDy=0;entryPerimeter=0;exitX=0;exitY=0;exitDx=0;exitDy=0;" edge="1" parent="1" source="HZRKlwLpZjMJuqIR7BEd-226" target="HZRKlwLpZjMJuqIR7BEd-70">
          <mxGeometry width="160" relative="1" as="geometry">
            <mxPoint x="610" y="1680" as="sourcePoint" />
            <mxPoint x="651" y="1600" as="targetPoint" />
          </mxGeometry>
        </mxCell>
        <mxCell id="HZRKlwLpZjMJuqIR7BEd-232" value="" style="endArrow=block;endFill=1;html=1;rounded=0;strokeWidth=3;exitX=0.5;exitY=0;exitDx=0;exitDy=0;exitPerimeter=0;" edge="1" parent="1" source="HZRKlwLpZjMJuqIR7BEd-23">
          <mxGeometry width="160" relative="1" as="geometry">
            <mxPoint x="280" y="891" as="sourcePoint" />
            <mxPoint x="280" y="680" as="targetPoint" />
          </mxGeometry>
        </mxCell>
        <mxCell id="HZRKlwLpZjMJuqIR7BEd-233" value="&lt;div&gt;approved meal plan &lt;br&gt;&lt;/div&gt;&lt;div&gt;for client&lt;/div&gt;" style="ellipse;whiteSpace=wrap;html=1;" vertex="1" parent="1">
          <mxGeometry x="380" y="764" width="160" height="70" as="geometry" />
        </mxCell>
        <mxCell id="HZRKlwLpZjMJuqIR7BEd-235" value="" style="endArrow=none;html=1;rounded=0;entryX=0;entryY=1;entryDx=0;entryDy=0;exitX=1;exitY=0.3333333333333333;exitDx=0;exitDy=0;exitPerimeter=0;strokeWidth=2;" edge="1" parent="1" target="HZRKlwLpZjMJuqIR7BEd-233">
          <mxGeometry width="50" height="50" relative="1" as="geometry">
            <mxPoint x="280" y="1001.88" as="sourcePoint" />
            <mxPoint x="372" y="891.88" as="targetPoint" />
          </mxGeometry>
        </mxCell>
      </root>
    </mxGraphModel>
  </diagram>
</mxfile>
